<svg width="114" height="22" viewBox="0 0 114 22" fill="none" xmlns="http://www.w3.org/2000/svg">
<g clip-path="url(#clip0_28_7)">
<path d="M18.7014 3.19833C17.693 2.18013 16.4919 1.37294 15.1682 0.82383C13.8445 0.274721 12.4248 -0.00530863 10.9917 7.62094e-05C4.98712 7.62094e-05 0.0935 4.89233 0.088 10.8983C0.088 12.822 0.59125 14.6933 1.54138 16.3502L0 22.0001L5.7805 20.4848C7.37892 21.3569 9.17091 21.8132 10.9917 21.8117H10.9973C17.0033 21.8117 21.8955 16.9195 21.901 10.908C21.9022 9.47528 21.62 8.05653 21.0707 6.73337C20.5213 5.41022 19.717 4.20881 18.7014 3.19833ZM10.9917 19.9665C9.36812 19.9652 7.77456 19.5283 6.37725 18.7015L6.04725 18.5035L2.618 19.4027L3.53375 16.0573L3.31925 15.7122C2.41148 14.2689 1.93139 12.5979 1.93462 10.8928C1.93462 5.90708 6.0005 1.83983 10.9973 1.83983C12.1876 1.83769 13.3667 2.0712 14.4664 2.5269C15.5661 2.9826 16.5648 3.65147 17.4048 4.49495C18.2475 5.33528 18.9156 6.33407 19.3706 7.43378C19.8256 8.53348 20.0584 9.71235 20.0557 10.9025C20.0503 15.9061 15.9844 19.9665 10.9917 19.9665ZM15.9624 13.1822C15.6915 13.0461 14.3536 12.3875 14.102 12.294C13.8517 12.2046 13.6689 12.1578 13.4901 12.4301C13.3073 12.701 12.7847 13.3183 12.628 13.4957C12.4712 13.6786 12.309 13.6992 12.0367 13.5645C11.7659 13.427 10.8872 13.141 9.84775 12.2101C9.0365 11.4882 8.49337 10.5945 8.33113 10.3236C8.17437 10.0513 8.316 9.90558 8.45212 9.76945C8.57175 9.64845 8.723 9.45045 8.85913 9.2937C8.99662 9.13695 9.042 9.02145 9.13137 8.83995C9.22075 8.6557 9.17812 8.49895 9.11075 8.36283C9.042 8.2267 8.49887 6.88333 8.26925 6.34158C8.04925 5.8067 7.82512 5.88095 7.65737 5.87408C7.50062 5.86445 7.31775 5.86445 7.13488 5.86445C6.99679 5.86797 6.86092 5.89994 6.73576 5.95838C6.6106 6.01682 6.49885 6.10046 6.4075 6.20408C6.15725 6.47633 5.45738 7.13495 5.45738 8.47833C5.45738 9.8217 6.43362 11.1128 6.57112 11.2957C6.70587 11.4786 8.48787 14.2272 11.2227 15.4097C11.869 15.6916 12.3778 15.858 12.7751 15.9845C13.4283 16.1935 14.0181 16.1618 14.4884 16.0945C15.0109 16.0147 16.0985 15.4345 16.3281 14.7978C16.5536 14.1598 16.5536 13.6153 16.4849 13.5012C16.4175 13.3857 16.2346 13.3183 15.9624 13.1822Z" fill="black"/>
</g>
<g clip-path="url(#clip1_28_7)">
<path d="M55 2C52.0149 2 51.6395 2.0125 50.4666 2.06C49.2938 2.11 48.4949 2.2775 47.795 2.525C47.0605 2.77541 46.3954 3.16925 45.8466 3.67875C45.2862 4.17768 44.8529 4.78231 44.5775 5.45C44.3052 6.085 44.1196 6.8125 44.066 7.875C44.0138 8.94375 44 9.28375 44 12.0013C44 14.7163 44.0138 15.0563 44.066 16.1225C44.121 17.1875 44.3052 17.9137 44.5775 18.55C44.8594 19.2075 45.2348 19.765 45.8466 20.3212C46.4571 20.8775 47.0704 21.22 47.7936 21.475C48.4949 21.7225 49.2924 21.8912 50.4639 21.94C51.6381 21.9875 52.0121 22 55 22C57.9879 22 58.3605 21.9875 59.5347 21.94C60.7049 21.89 61.5065 21.7225 62.2064 21.475C62.9403 21.2244 63.605 20.8306 64.1534 20.3212C64.7652 19.765 65.1406 19.2075 65.4225 18.55C65.6934 17.9137 65.879 17.1875 65.934 16.1225C65.9862 15.0563 66 14.7163 66 12C66 9.28375 65.9862 8.94375 65.934 7.87625C65.879 6.8125 65.6934 6.085 65.4225 5.45C65.1471 4.78231 64.7138 4.17768 64.1534 3.67875C63.6046 3.16925 62.9395 2.77541 62.205 2.525C61.5037 2.2775 60.7035 2.10875 59.5334 2.06C58.3591 2.0125 57.9865 2 54.9973 2H55ZM54.0141 3.8025H55.0014C57.9384 3.8025 58.2863 3.81125 59.4454 3.86C60.5179 3.90375 61.1009 4.0675 61.4886 4.20375C62.0015 4.385 62.3686 4.6025 62.7536 4.9525C63.1386 5.3025 63.3765 5.635 63.5759 6.1025C63.7271 6.45375 63.9059 6.98375 63.954 7.95875C64.0076 9.0125 64.0186 9.32875 64.0186 11.9975C64.0186 14.6663 64.0076 14.9837 63.954 16.0375C63.9059 17.0125 63.7257 17.5413 63.5759 17.8938C63.3983 18.3274 63.117 18.7197 62.7522 19.0425C62.3672 19.3925 62.0015 19.6088 61.4873 19.79C61.1023 19.9275 60.5192 20.09 59.4454 20.135C58.2863 20.1825 57.9384 20.1938 55.0014 20.1938C52.0644 20.1938 51.7151 20.1825 50.556 20.135C49.4835 20.09 48.9019 19.9275 48.5141 19.79C48.0368 19.6291 47.6047 19.3738 47.2491 19.0425C46.8838 18.7195 46.602 18.3267 46.4241 17.8925C46.2743 17.5412 46.0941 17.0113 46.046 16.0363C45.9938 14.9825 45.9828 14.6663 45.9828 11.995C45.9828 9.32375 45.9938 9.01 46.046 7.95625C46.0955 6.98125 46.2743 6.45125 46.4255 6.09875C46.6249 5.6325 46.8641 5.29875 47.2491 4.94875C47.6341 4.59875 47.9999 4.3825 48.5141 4.20125C48.9019 4.06375 49.4835 3.90125 50.556 3.85625C51.5708 3.81375 51.964 3.80125 54.0141 3.8V3.8025ZM60.8726 5.4625C60.6993 5.4625 60.5276 5.49354 60.3675 5.55384C60.2073 5.61415 60.0618 5.70254 59.9392 5.81397C59.8167 5.9254 59.7194 6.05769 59.6531 6.20328C59.5868 6.34887 59.5526 6.50491 59.5526 6.6625C59.5526 6.82009 59.5868 6.97613 59.6531 7.12172C59.7194 7.26731 59.8167 7.3996 59.9392 7.51103C60.0618 7.62246 60.2073 7.71085 60.3675 7.77116C60.5276 7.83146 60.6993 7.8625 60.8726 7.8625C61.2227 7.8625 61.5585 7.73607 61.806 7.51103C62.0536 7.28598 62.1926 6.98076 62.1926 6.6625C62.1926 6.34424 62.0536 6.03902 61.806 5.81397C61.5585 5.58893 61.2227 5.4625 60.8726 5.4625ZM55.0014 6.865C54.2521 6.85437 53.508 6.97936 52.8123 7.23268C52.1167 7.486 51.4835 7.86259 50.9495 8.34053C50.4155 8.81847 49.9914 9.38821 49.7019 10.0166C49.4124 10.6449 49.2634 11.3194 49.2634 12.0006C49.2634 12.6819 49.4124 13.3563 49.7019 13.9847C49.9914 14.613 50.4155 15.1828 50.9495 15.6607C51.4835 16.1387 52.1167 16.5153 52.8123 16.7686C53.508 17.0219 54.2521 17.1469 55.0014 17.1363C56.4844 17.1152 57.8988 16.5649 58.9393 15.6041C59.9799 14.6432 60.5631 13.349 60.5631 12.0006C60.5631 10.6523 59.9799 9.35802 58.9393 8.39719C57.8988 7.43636 56.4844 6.88603 55.0014 6.865ZM55.0014 8.66625C55.4829 8.66625 55.9598 8.75248 56.4047 8.92002C56.8496 9.08755 57.2539 9.33312 57.5944 9.64268C57.9349 9.95225 58.2051 10.3198 58.3894 10.7242C58.5736 11.1287 58.6685 11.5622 58.6685 12C58.6685 12.4378 58.5736 12.8713 58.3894 13.2758C58.2051 13.6802 57.9349 14.0477 57.5944 14.3573C57.2539 14.6669 56.8496 14.9124 56.4047 15.08C55.9598 15.2475 55.4829 15.3337 55.0014 15.3337C54.0288 15.3337 53.096 14.9825 52.4083 14.3573C51.7206 13.7321 51.3342 12.8842 51.3342 12C51.3342 11.1158 51.7206 10.2679 52.4083 9.64268C53.096 9.01748 54.0288 8.66625 55.0014 8.66625Z" fill="black"/>
</g>
<g clip-path="url(#clip2_28_7)">
<path d="M114 11.0675C114 4.95428 108.403 -0.0012207 101.5 -0.0012207C94.594 0.000154297 88.9972 4.95428 88.9972 11.0689C88.9972 16.5923 93.569 21.171 99.544 22.0015V14.2672H96.3722V11.0689H99.5472V8.62828C99.5472 5.8549 101.414 4.32315 104.269 4.32315C105.638 4.32315 107.067 4.53903 107.067 4.53903V7.26153H105.491C103.939 7.26153 103.455 8.1154 103.455 8.99128V11.0675H106.921L106.367 14.2658H103.453V22.0002C109.428 21.1697 114 16.5909 114 11.0675Z" fill="black"/>
</g>
<defs>
<clipPath id="clip0_28_7">
<rect width="22" height="22" fill="white"/>
</clipPath>
<clipPath id="clip1_28_7">
<rect width="22" height="20" fill="white" transform="translate(44 2)"/>
</clipPath>
<clipPath id="clip2_28_7">
<rect width="25" height="22" fill="white" transform="translate(89)"/>
</clipPath>
</defs>
</svg>